<mxfile host="app.diagrams.net" modified="2023-06-01T10:43:42.640Z" agent="Mozilla/5.0 (Windows NT 10.0; Win64; x64) AppleWebKit/537.36 (KHTML, like Gecko) Chrome/114.0.0.0 Safari/537.36" etag="K-AJdtZty4LrupTyDhp9" version="21.3.6" type="github">
  <diagram name="PÃ¡gina-1" id="L3DOsuOag-OXjFAkZMkS">
    <mxGraphModel dx="1280" dy="502" grid="0" gridSize="10" guides="1" tooltips="1" connect="1" arrows="1" fold="1" page="0" pageScale="1" pageWidth="827" pageHeight="1169" math="0" shadow="0">
      <root>
        <mxCell id="0" />
        <mxCell id="1" parent="0" />
        <mxCell id="nN6YTqN96VM4Hc3FUkgL-49" value="" style="edgeStyle=none;curved=1;rounded=0;orthogonalLoop=1;jettySize=auto;html=1;fontSize=12;startSize=8;endSize=8;fontColor=#FF8000;strokeColor=#FF8000;" parent="1" source="nN6YTqN96VM4Hc3FUkgL-1" target="nN6YTqN96VM4Hc3FUkgL-17" edge="1">
          <mxGeometry relative="1" as="geometry">
            <Array as="points">
              <mxPoint x="343" y="445" />
            </Array>
          </mxGeometry>
        </mxCell>
        <mxCell id="nN6YTqN96VM4Hc3FUkgL-53" value="" style="edgeStyle=none;curved=1;rounded=0;orthogonalLoop=1;jettySize=auto;html=1;fontSize=12;startSize=8;endSize=8;" parent="1" source="nN6YTqN96VM4Hc3FUkgL-1" target="nN6YTqN96VM4Hc3FUkgL-31" edge="1">
          <mxGeometry relative="1" as="geometry" />
        </mxCell>
        <mxCell id="nN6YTqN96VM4Hc3FUkgL-1" value="&lt;font style=&quot;font-size: 12px;&quot;&gt;News Database (SQLITE3)&lt;/font&gt;" style="strokeWidth=2;html=1;shape=mxgraph.flowchart.database;whiteSpace=wrap;fontSize=16;" parent="1" vertex="1">
          <mxGeometry x="165" y="364.75" width="101" height="100.5" as="geometry" />
        </mxCell>
        <mxCell id="nN6YTqN96VM4Hc3FUkgL-8" value="" style="edgeStyle=none;curved=1;rounded=0;orthogonalLoop=1;jettySize=auto;html=1;fontSize=12;startSize=8;endSize=8;strokeColor=#CCCC00;" parent="1" source="nN6YTqN96VM4Hc3FUkgL-2" target="nN6YTqN96VM4Hc3FUkgL-7" edge="1">
          <mxGeometry relative="1" as="geometry" />
        </mxCell>
        <mxCell id="nN6YTqN96VM4Hc3FUkgL-10" value="" style="edgeStyle=orthogonalEdgeStyle;rounded=0;orthogonalLoop=1;jettySize=auto;html=1;fontSize=12;startSize=8;endSize=8;fontColor=#FF0000;labelBorderColor=#FF0000;labelBackgroundColor=#FF0000;strokeColor=#FF0000;entryX=0.015;entryY=0.4;entryDx=0;entryDy=0;entryPerimeter=0;" parent="1" source="nN6YTqN96VM4Hc3FUkgL-2" target="nN6YTqN96VM4Hc3FUkgL-9" edge="1">
          <mxGeometry relative="1" as="geometry">
            <mxPoint x="-64" y="269" as="targetPoint" />
            <Array as="points">
              <mxPoint x="-84" y="114" />
            </Array>
          </mxGeometry>
        </mxCell>
        <mxCell id="nN6YTqN96VM4Hc3FUkgL-11" value="&lt;font style=&quot;font-size: 12px;&quot;&gt;Search for news&lt;/font&gt;" style="edgeLabel;html=1;align=center;verticalAlign=middle;resizable=0;points=[];fontSize=16;fontColor=#FF0000;" parent="nN6YTqN96VM4Hc3FUkgL-10" vertex="1" connectable="0">
          <mxGeometry x="0.3793" relative="1" as="geometry">
            <mxPoint x="-150" y="220" as="offset" />
          </mxGeometry>
        </mxCell>
        <mxCell id="nN6YTqN96VM4Hc3FUkgL-2" value="Webscrapper" style="verticalLabelPosition=bottom;verticalAlign=top;html=1;shape=mxgraph.basic.diag_round_rect;dx=6;whiteSpace=wrap;fontSize=16;" parent="1" vertex="1">
          <mxGeometry x="-114" y="385" width="100" height="60" as="geometry" />
        </mxCell>
        <mxCell id="nN6YTqN96VM4Hc3FUkgL-7" value="" style="shape=waypoint;sketch=0;size=6;pointerEvents=1;points=[];fillColor=default;resizable=0;rotatable=0;perimeter=centerPerimeter;snapToPoint=1;fontSize=16;verticalAlign=top;" parent="1" vertex="1">
          <mxGeometry x="146" y="405" width="20" height="20" as="geometry" />
        </mxCell>
        <mxCell id="nN6YTqN96VM4Hc3FUkgL-9" value="WEB" style="whiteSpace=wrap;html=1;shape=mxgraph.basic.cloud_callout;fontSize=16;" parent="1" vertex="1">
          <mxGeometry x="171" y="90" width="90" height="60" as="geometry" />
        </mxCell>
        <mxCell id="nN6YTqN96VM4Hc3FUkgL-47" value="" style="edgeStyle=none;curved=1;rounded=0;orthogonalLoop=1;jettySize=auto;html=1;fontSize=12;startSize=8;endSize=8;strokeColor=#66FFB3;" parent="1" source="nN6YTqN96VM4Hc3FUkgL-17" target="nN6YTqN96VM4Hc3FUkgL-1" edge="1">
          <mxGeometry relative="1" as="geometry">
            <Array as="points">
              <mxPoint x="346" y="395" />
            </Array>
          </mxGeometry>
        </mxCell>
        <mxCell id="nN6YTqN96VM4Hc3FUkgL-17" value="Raw news processor (through GPT API)" style="verticalLabelPosition=bottom;verticalAlign=top;html=1;shape=mxgraph.basic.diag_round_rect;dx=6;whiteSpace=wrap;fontSize=16;" parent="1" vertex="1">
          <mxGeometry x="422" y="385" width="100" height="60" as="geometry" />
        </mxCell>
        <mxCell id="nN6YTqN96VM4Hc3FUkgL-26" value="" style="edgeStyle=orthogonalEdgeStyle;rounded=0;orthogonalLoop=1;jettySize=auto;html=1;fontSize=12;startSize=8;endSize=8;fontColor=#FF0000;labelBorderColor=#FF0000;labelBackgroundColor=#FF0000;strokeColor=#33FF33;entryX=0.76;entryY=0;entryDx=0;entryDy=0;entryPerimeter=0;exitX=0.072;exitY=0.6;exitDx=0;exitDy=0;exitPerimeter=0;" parent="1" source="nN6YTqN96VM4Hc3FUkgL-9" target="nN6YTqN96VM4Hc3FUkgL-2" edge="1">
          <mxGeometry relative="1" as="geometry">
            <mxPoint x="164" y="234" as="sourcePoint" />
            <mxPoint x="-38" y="346" as="targetPoint" />
            <Array as="points">
              <mxPoint x="-38" y="126" />
            </Array>
          </mxGeometry>
        </mxCell>
        <mxCell id="nN6YTqN96VM4Hc3FUkgL-27" value="&lt;font color=&quot;#33ff33&quot; style=&quot;font-size: 12px;&quot;&gt;Extract news&lt;/font&gt;" style="edgeLabel;html=1;align=center;verticalAlign=middle;resizable=0;points=[];fontSize=16;fontColor=#FF0000;" parent="nN6YTqN96VM4Hc3FUkgL-26" vertex="1" connectable="0">
          <mxGeometry x="0.3793" relative="1" as="geometry">
            <mxPoint x="46" y="-88" as="offset" />
          </mxGeometry>
        </mxCell>
        <mxCell id="nN6YTqN96VM4Hc3FUkgL-52" value="" style="edgeStyle=none;curved=1;rounded=0;orthogonalLoop=1;jettySize=auto;html=1;fontSize=12;startSize=8;endSize=8;" parent="1" source="nN6YTqN96VM4Hc3FUkgL-31" target="nN6YTqN96VM4Hc3FUkgL-9" edge="1">
          <mxGeometry relative="1" as="geometry" />
        </mxCell>
        <mxCell id="nN6YTqN96VM4Hc3FUkgL-31" value="" style="verticalLabelPosition=bottom;verticalAlign=top;html=1;shape=mxgraph.basic.frame;dx=10;whiteSpace=wrap;fontSize=16;" parent="1" vertex="1">
          <mxGeometry x="166" y="216" width="100" height="60" as="geometry" />
        </mxCell>
        <mxCell id="nN6YTqN96VM4Hc3FUkgL-38" value="&lt;font style=&quot;font-size: 12px;&quot;&gt;GPTNews&lt;br&gt;&amp;nbsp;webpage&lt;/font&gt;" style="text;html=1;align=center;verticalAlign=middle;resizable=0;points=[];autosize=1;strokeColor=none;fillColor=none;fontSize=16;" parent="1" vertex="1">
          <mxGeometry x="177" y="219" width="73" height="50" as="geometry" />
        </mxCell>
        <mxCell id="nN6YTqN96VM4Hc3FUkgL-39" value="" style="edgeStyle=orthogonalEdgeStyle;rounded=0;orthogonalLoop=1;jettySize=auto;html=1;fontSize=12;startSize=8;endSize=8;fontColor=#FF0000;labelBorderColor=#FF0000;labelBackgroundColor=#FF0000;strokeColor=#FF0000;entryX=0.994;entryY=0.283;entryDx=0;entryDy=0;entryPerimeter=0;exitX=0.5;exitY=0;exitDx=0;exitDy=0;exitPerimeter=0;" parent="1" source="nN6YTqN96VM4Hc3FUkgL-17" target="nN6YTqN96VM4Hc3FUkgL-9" edge="1">
          <mxGeometry relative="1" as="geometry">
            <mxPoint x="360" y="399" as="sourcePoint" />
            <mxPoint x="615" y="128" as="targetPoint" />
            <Array as="points">
              <mxPoint x="472" y="107" />
            </Array>
          </mxGeometry>
        </mxCell>
        <mxCell id="nN6YTqN96VM4Hc3FUkgL-40" value="&lt;span style=&quot;font-size: 12px;&quot;&gt;Contact and prompt GPT API&lt;/span&gt;" style="edgeLabel;html=1;align=center;verticalAlign=middle;resizable=0;points=[];fontSize=16;fontColor=#FF0000;" parent="nN6YTqN96VM4Hc3FUkgL-39" vertex="1" connectable="0">
          <mxGeometry x="0.3793" relative="1" as="geometry">
            <mxPoint x="151" y="229" as="offset" />
          </mxGeometry>
        </mxCell>
        <mxCell id="nN6YTqN96VM4Hc3FUkgL-42" value="" style="edgeStyle=orthogonalEdgeStyle;rounded=0;orthogonalLoop=1;jettySize=auto;html=1;fontSize=12;startSize=8;endSize=8;fontColor=#FF0000;labelBorderColor=#FF0000;labelBackgroundColor=#FF0000;strokeColor=#33FF33;entryX=0.76;entryY=0;entryDx=0;entryDy=0;entryPerimeter=0;" parent="1" edge="1">
          <mxGeometry relative="1" as="geometry">
            <mxPoint x="260" y="128" as="sourcePoint" />
            <mxPoint x="451" y="385" as="targetPoint" />
          </mxGeometry>
        </mxCell>
        <mxCell id="nN6YTqN96VM4Hc3FUkgL-43" value="&lt;font color=&quot;#33ff33&quot;&gt;&lt;span style=&quot;font-size: 12px;&quot;&gt;1. API response&lt;br&gt;2. GPT processed news&lt;br&gt;&lt;/span&gt;&lt;/font&gt;" style="edgeLabel;html=1;align=center;verticalAlign=middle;resizable=0;points=[];fontSize=16;fontColor=#FF0000;" parent="nN6YTqN96VM4Hc3FUkgL-42" vertex="1" connectable="0">
          <mxGeometry x="0.3793" relative="1" as="geometry">
            <mxPoint x="-70" y="-96" as="offset" />
          </mxGeometry>
        </mxCell>
        <mxCell id="nN6YTqN96VM4Hc3FUkgL-45" value="&lt;font style=&quot;font-size: 12px;&quot;&gt;Insert new&lt;br&gt;&amp;nbsp;raw news data&lt;/font&gt;" style="text;html=1;align=center;verticalAlign=middle;resizable=0;points=[];autosize=1;strokeColor=none;fillColor=none;fontSize=16;fontColor=#CCCC00;" parent="1" vertex="1">
          <mxGeometry x="25" y="419" width="99" height="50" as="geometry" />
        </mxCell>
        <mxCell id="nN6YTqN96VM4Hc3FUkgL-48" value="&lt;span style=&quot;font-size: 12px;&quot;&gt;Read new raw news&lt;br&gt;(if available)&lt;/span&gt;" style="text;html=1;align=center;verticalAlign=middle;resizable=0;points=[];autosize=1;strokeColor=none;fillColor=none;fontSize=16;fontColor=#FF8000;" parent="1" vertex="1">
          <mxGeometry x="281" y="433" width="126" height="50" as="geometry" />
        </mxCell>
        <mxCell id="nN6YTqN96VM4Hc3FUkgL-51" value="&lt;font color=&quot;#66ffb3&quot;&gt;&lt;span style=&quot;font-size: 12px;&quot;&gt;Insert processed news&lt;br&gt;&amp;nbsp;from GPT&lt;/span&gt;&lt;/font&gt;" style="text;html=1;align=center;verticalAlign=middle;resizable=0;points=[];autosize=1;strokeColor=none;fillColor=none;fontSize=16;fontColor=#FF8000;" parent="1" vertex="1">
          <mxGeometry x="275" y="337" width="138" height="50" as="geometry" />
        </mxCell>
        <mxCell id="nN6YTqN96VM4Hc3FUkgL-54" value="&lt;font style=&quot;font-size: 12px;&quot; color=&quot;#ffffff&quot;&gt;Read processed &lt;br&gt;news for user&lt;/font&gt;" style="text;html=1;align=center;verticalAlign=middle;resizable=0;points=[];autosize=1;strokeColor=none;fillColor=none;fontSize=16;fontColor=#CCCC00;" parent="1" vertex="1">
          <mxGeometry x="103.5" y="295" width="105" height="50" as="geometry" />
        </mxCell>
        <mxCell id="nN6YTqN96VM4Hc3FUkgL-60" value="" style="edgeStyle=none;curved=1;rounded=0;orthogonalLoop=1;jettySize=auto;html=1;fontSize=12;startSize=8;endSize=8;" parent="1" source="nN6YTqN96VM4Hc3FUkgL-55" target="nN6YTqN96VM4Hc3FUkgL-9" edge="1">
          <mxGeometry relative="1" as="geometry" />
        </mxCell>
        <mxCell id="nN6YTqN96VM4Hc3FUkgL-55" value="" style="shape=actor;whiteSpace=wrap;html=1;fontSize=16;" parent="1" vertex="1">
          <mxGeometry x="200" y="14" width="31" height="41" as="geometry" />
        </mxCell>
        <mxCell id="nN6YTqN96VM4Hc3FUkgL-61" value="User" style="text;html=1;align=center;verticalAlign=middle;resizable=0;points=[];autosize=1;strokeColor=none;fillColor=none;fontSize=16;" parent="1" vertex="1">
          <mxGeometry x="137" y="24" width="52" height="31" as="geometry" />
        </mxCell>
        <mxCell id="nN6YTqN96VM4Hc3FUkgL-62" value="&lt;font color=&quot;#ffffff&quot;&gt;&lt;span style=&quot;font-size: 12px;&quot;&gt;Send data to &lt;br&gt;webpage&lt;/span&gt;&lt;/font&gt;" style="text;html=1;align=center;verticalAlign=middle;resizable=0;points=[];autosize=1;strokeColor=none;fillColor=none;fontSize=16;fontColor=#CCCC00;" parent="1" vertex="1">
          <mxGeometry x="113" y="158" width="86" height="50" as="geometry" />
        </mxCell>
        <mxCell id="nN6YTqN96VM4Hc3FUkgL-65" value="&lt;h1 style=&quot;font-size: 24px;&quot;&gt;&lt;span style=&quot;background-color: initial;&quot;&gt;&lt;font color=&quot;#000000&quot; style=&quot;font-size: 24px;&quot;&gt;Legend&lt;/font&gt;&lt;/span&gt;&lt;/h1&gt;&lt;h1 style=&quot;font-size: 12px;&quot;&gt;&lt;font style=&quot;font-size: 12px;&quot;&gt;&lt;span style=&quot;font-weight: normal;&quot;&gt;1. On demand (&lt;/span&gt;&lt;font color=&quot;#7ea6e0&quot;&gt;OD&lt;/font&gt;&lt;span style=&quot;font-weight: normal;&quot;&gt;)&lt;/span&gt;&lt;/font&gt;&lt;/h1&gt;&lt;div style=&quot;font-size: 12px;&quot;&gt;&lt;font style=&quot;font-size: 12px;&quot;&gt;2. Independent process (&lt;b style=&quot;&quot;&gt;&lt;font color=&quot;#7ea6e0&quot;&gt;INP&lt;/font&gt;&lt;/b&gt;)&lt;/font&gt;&lt;/div&gt;&lt;div style=&quot;font-size: 12px;&quot;&gt;&lt;font style=&quot;font-size: 12px;&quot;&gt;3. Database (&lt;b&gt;&lt;font color=&quot;#7ea6e0&quot;&gt;DB&lt;/font&gt;&lt;/b&gt;)&lt;/font&gt;&lt;/div&gt;&lt;div style=&quot;font-size: 12px;&quot;&gt;&lt;font style=&quot;font-size: 12px;&quot;&gt;4. Logic route (&lt;font color=&quot;#7ea6e0&quot;&gt;Sequential numbers&lt;/font&gt;)&lt;/font&gt;&lt;/div&gt;" style="text;html=1;strokeColor=#6F0000;fillColor=#a20025;spacing=5;spacingTop=-20;whiteSpace=wrap;overflow=hidden;rounded=0;fontSize=16;fontColor=#ffffff;align=left;" parent="1" vertex="1">
          <mxGeometry x="-269" y="17" width="157" height="154" as="geometry" />
        </mxCell>
        <mxCell id="nN6YTqN96VM4Hc3FUkgL-66" value="&lt;b&gt;&lt;font color=&quot;#7ea6e0&quot;&gt;OD&lt;/font&gt;&lt;/b&gt;" style="ellipse;whiteSpace=wrap;html=1;aspect=fixed;fontSize=16;fillColor=#a20025;fontColor=#ffffff;strokeColor=#6F0000;" parent="1" vertex="1">
          <mxGeometry x="266" y="189" width="30" height="30" as="geometry" />
        </mxCell>
        <mxCell id="nN6YTqN96VM4Hc3FUkgL-67" value="&lt;b&gt;&lt;font color=&quot;#7ea6e0&quot;&gt;INP&lt;/font&gt;&lt;/b&gt;" style="ellipse;whiteSpace=wrap;html=1;aspect=fixed;fontSize=16;fillColor=#a20025;fontColor=#ffffff;strokeColor=#6F0000;" parent="1" vertex="1">
          <mxGeometry x="-14" y="357" width="30" height="30" as="geometry" />
        </mxCell>
        <mxCell id="nN6YTqN96VM4Hc3FUkgL-68" value="&lt;b&gt;&lt;font color=&quot;#7ea6e0&quot;&gt;INP&lt;/font&gt;&lt;/b&gt;" style="ellipse;whiteSpace=wrap;html=1;aspect=fixed;fontSize=16;fillColor=#a20025;fontColor=#ffffff;strokeColor=#6F0000;" parent="1" vertex="1">
          <mxGeometry x="522" y="355" width="30" height="30" as="geometry" />
        </mxCell>
        <mxCell id="nN6YTqN96VM4Hc3FUkgL-69" value="&lt;b&gt;&lt;font color=&quot;#7ea6e0&quot;&gt;DB&lt;/font&gt;&lt;/b&gt;" style="ellipse;whiteSpace=wrap;html=1;aspect=fixed;fontSize=16;fillColor=#a20025;fontColor=#ffffff;strokeColor=#6F0000;" parent="1" vertex="1">
          <mxGeometry x="248" y="339" width="30" height="30" as="geometry" />
        </mxCell>
        <mxCell id="nN6YTqN96VM4Hc3FUkgL-76" value="" style="edgeStyle=none;curved=1;rounded=0;orthogonalLoop=1;jettySize=auto;html=1;fontSize=12;startSize=8;endSize=8;" parent="1" source="nN6YTqN96VM4Hc3FUkgL-70" edge="1">
          <mxGeometry relative="1" as="geometry">
            <mxPoint x="-109" y="219" as="targetPoint" />
          </mxGeometry>
        </mxCell>
        <mxCell id="nN6YTqN96VM4Hc3FUkgL-70" value="&lt;b&gt;&lt;font color=&quot;#7ea6e0&quot;&gt;1&lt;/font&gt;&lt;/b&gt;" style="ellipse;whiteSpace=wrap;html=1;aspect=fixed;fontSize=16;fillColor=#a20025;fontColor=#ffffff;strokeColor=#6F0000;" parent="1" vertex="1">
          <mxGeometry x="-124" y="256" width="30" height="30" as="geometry" />
        </mxCell>
        <mxCell id="nN6YTqN96VM4Hc3FUkgL-77" value="" style="edgeStyle=none;curved=1;rounded=0;orthogonalLoop=1;jettySize=auto;html=1;fontSize=12;startSize=8;endSize=8;" parent="1" source="nN6YTqN96VM4Hc3FUkgL-71" edge="1">
          <mxGeometry relative="1" as="geometry">
            <mxPoint x="-12" y="320" as="targetPoint" />
          </mxGeometry>
        </mxCell>
        <mxCell id="nN6YTqN96VM4Hc3FUkgL-71" value="&lt;b&gt;&lt;font color=&quot;#7ea6e0&quot;&gt;2&lt;/font&gt;&lt;/b&gt;" style="ellipse;whiteSpace=wrap;html=1;aspect=fixed;fontSize=16;fillColor=#a20025;fontColor=#ffffff;strokeColor=#6F0000;" parent="1" vertex="1">
          <mxGeometry x="-27" y="256" width="30" height="30" as="geometry" />
        </mxCell>
        <mxCell id="nN6YTqN96VM4Hc3FUkgL-81" value="" style="edgeStyle=none;curved=1;rounded=0;orthogonalLoop=1;jettySize=auto;html=1;fontSize=12;startSize=8;endSize=8;" parent="1" source="nN6YTqN96VM4Hc3FUkgL-72" edge="1">
          <mxGeometry relative="1" as="geometry">
            <mxPoint x="339" y="491" as="targetPoint" />
          </mxGeometry>
        </mxCell>
        <mxCell id="nN6YTqN96VM4Hc3FUkgL-72" value="&lt;b&gt;&lt;font color=&quot;#7ea6e0&quot;&gt;4&lt;/font&gt;&lt;/b&gt;" style="ellipse;whiteSpace=wrap;html=1;aspect=fixed;fontSize=16;fillColor=#a20025;fontColor=#ffffff;strokeColor=#6F0000;" parent="1" vertex="1">
          <mxGeometry x="278" y="476" width="30" height="30" as="geometry" />
        </mxCell>
        <mxCell id="nN6YTqN96VM4Hc3FUkgL-83" value="" style="edgeStyle=none;curved=1;rounded=0;orthogonalLoop=1;jettySize=auto;html=1;fontSize=12;startSize=8;endSize=8;" parent="1" source="nN6YTqN96VM4Hc3FUkgL-74" edge="1">
          <mxGeometry relative="1" as="geometry">
            <mxPoint x="498" y="210" as="targetPoint" />
          </mxGeometry>
        </mxCell>
        <mxCell id="nN6YTqN96VM4Hc3FUkgL-74" value="&lt;b&gt;&lt;font color=&quot;#7ea6e0&quot;&gt;5&lt;/font&gt;&lt;/b&gt;" style="ellipse;whiteSpace=wrap;html=1;aspect=fixed;fontSize=16;fillColor=#a20025;fontColor=#ffffff;strokeColor=#6F0000;" parent="1" vertex="1">
          <mxGeometry x="483" y="256" width="30" height="30" as="geometry" />
        </mxCell>
        <mxCell id="nN6YTqN96VM4Hc3FUkgL-84" value="" style="edgeStyle=none;curved=1;rounded=0;orthogonalLoop=1;jettySize=auto;html=1;fontSize=12;startSize=8;endSize=8;" parent="1" source="nN6YTqN96VM4Hc3FUkgL-75" edge="1">
          <mxGeometry relative="1" as="geometry">
            <mxPoint x="431" y="324" as="targetPoint" />
          </mxGeometry>
        </mxCell>
        <mxCell id="nN6YTqN96VM4Hc3FUkgL-75" value="&lt;b&gt;&lt;font color=&quot;#7ea6e0&quot;&gt;6&lt;/font&gt;&lt;/b&gt;" style="ellipse;whiteSpace=wrap;html=1;aspect=fixed;fontSize=16;fillColor=#a20025;fontColor=#ffffff;strokeColor=#6F0000;" parent="1" vertex="1">
          <mxGeometry x="416" y="256" width="30" height="30" as="geometry" />
        </mxCell>
        <mxCell id="nN6YTqN96VM4Hc3FUkgL-79" value="" style="edgeStyle=none;curved=1;rounded=0;orthogonalLoop=1;jettySize=auto;html=1;fontSize=12;startSize=8;endSize=8;" parent="1" source="nN6YTqN96VM4Hc3FUkgL-78" edge="1">
          <mxGeometry relative="1" as="geometry">
            <mxPoint x="124" y="390" as="targetPoint" />
          </mxGeometry>
        </mxCell>
        <mxCell id="nN6YTqN96VM4Hc3FUkgL-78" value="&lt;b&gt;&lt;font color=&quot;#7ea6e0&quot;&gt;3&lt;/font&gt;&lt;/b&gt;" style="ellipse;whiteSpace=wrap;html=1;aspect=fixed;fontSize=16;fillColor=#a20025;fontColor=#ffffff;strokeColor=#6F0000;" parent="1" vertex="1">
          <mxGeometry x="59.5" y="375" width="30" height="30" as="geometry" />
        </mxCell>
        <mxCell id="nN6YTqN96VM4Hc3FUkgL-86" value="" style="edgeStyle=none;curved=1;rounded=0;orthogonalLoop=1;jettySize=auto;html=1;fontSize=12;startSize=8;endSize=8;" parent="1" source="nN6YTqN96VM4Hc3FUkgL-85" edge="1">
          <mxGeometry relative="1" as="geometry">
            <mxPoint x="358" y="390" as="targetPoint" />
          </mxGeometry>
        </mxCell>
        <mxCell id="nN6YTqN96VM4Hc3FUkgL-85" value="&lt;b&gt;&lt;font color=&quot;#7ea6e0&quot;&gt;7&lt;/font&gt;&lt;/b&gt;" style="ellipse;whiteSpace=wrap;html=1;aspect=fixed;fontSize=16;fillColor=#a20025;fontColor=#ffffff;strokeColor=#6F0000;" parent="1" vertex="1">
          <mxGeometry x="394" y="375" width="30" height="30" as="geometry" />
        </mxCell>
      </root>
    </mxGraphModel>
  </diagram>
</mxfile>
